<?xml version="1.0" encoding="utf-8"?>
<!-- Generator: Adobe Illustrator 21.1.0, SVG Export Plug-In . SVG Version: 6.00 Build 0)  -->
<svg version="1.1" id="bigplay-gradient.fw-Page_x25_201"
	 xmlns="http://www.w3.org/2000/svg" xmlns:xlink="http://www.w3.org/1999/xlink" x="0px" y="0px" viewBox="0 0 100 200"
	 style="enable-background:new 0 0 100 200;" xml:space="preserve">
<style type="text/css">
	.st0{fill:none;enable-background:new    ;}
	.st1{display:none;}
	.st2{display:inline;fill:url(#SVGID_1_);}
	.st3{display:inline;fill:url(#SVGID_2_);}
	.st4{display:inline;}
	.st5{fill:#FFFFFF;}
	.st6{display:inline;fill:none;stroke:#FFFFFF;stroke-width:5;}
	.st7{fill:none;stroke:#FFFFFF;stroke-width:5;enable-background:new    ;}
	.st8{fill:#84BD00;}
	.st9{opacity:0.5;fill:#84BD00;}
</style>
<path class="st0" d="M0,0"/>
<g id="Background" class="st1">
</g>
<g id="dark_x25_20shadow" class="st1">
	
		<radialGradient id="SVGID_1_" cx="-1150.5667" cy="152.6555" r="0.5" gradientTransform="matrix(90 0 0 90 103601 -13689)" gradientUnits="userSpaceOnUse">
		<stop  offset="0.7" style="stop-color:#222222;stop-opacity:0"/>
		<stop  offset="0.702" style="stop-color:#222222;stop-opacity:1.180000e-02"/>
		<stop  offset="0.85" style="stop-color:#333333"/>
		<stop  offset="1" style="stop-color:#333333;stop-opacity:0"/>
	</radialGradient>
	<path class="st2" d="M22,50c0-15.5,12.5-28,28-28s28,12.5,28,28S65.5,78,50,78S22,65.5,22,50z M5,50c0,24.9,20.1,45,45,45
		s45-20.1,45-45S74.9,5,50,5S5,25.1,5,50z"/>
	
		<radialGradient id="SVGID_2_" cx="-1150.5667" cy="152.6555" r="0.5" gradientTransform="matrix(90 0 0 90 103601 -13589)" gradientUnits="userSpaceOnUse">
		<stop  offset="0.7" style="stop-color:#BBBBBB;stop-opacity:0"/>
		<stop  offset="0.702" style="stop-color:#BBBBBB;stop-opacity:1.180000e-02"/>
		<stop  offset="0.85" style="stop-color:#BBBBBB"/>
		<stop  offset="1" style="stop-color:#BBBBBB;stop-opacity:0"/>
	</radialGradient>
	<path class="st3" d="M22,150c0-15.5,12.5-28,28-28s28,12.5,28,28s-12.5,28-28,28S22,165.5,22,150z M5,150c0,24.9,20.1,45,45,45
		s45-20.1,45-45s-20.1-45-45-45S5,125.1,5,150z"/>
</g>
<g id="dark" class="st1">
	<g id="Polygon" class="st4">
		<polygon class="st5" points="72.5,49.5 38.8,69 38.8,30 		"/>
	</g>
	<path id="Ellipse" class="st6" d="M13,50.5C13,29.8,29.8,13,50.5,13S88,29.8,88,50.5S71.2,88,50.5,88S13,71.2,13,50.5z"/>
</g>
<g id="light" class="st1">
	<g id="Polygon2" class="st4">
		<polygon class="st5" points="72.5,149.5 38.8,169 38.8,130 		"/>
	</g>
	<path id="Ellipse2" class="st6" d="M13,150.5c0-20.7,16.8-37.5,37.5-37.5S88,129.8,88,150.5S71.2,188,50.5,188S13,171.2,13,150.5z"
		/>
</g>
<path class="st7" d="M0,0"/>
<circle class="st8" cx="50" cy="150.8" r="40.6"/>
<g>
	<path class="st8" d="M66.9,149.3l-23.2-15.9c-0.7-0.5-2.7-0.5-2.8,1.5v31.8c0.2,2,2.1,2,2.8,1.5l23.2-15.9
		C67.5,151.9,68.3,150.4,66.9,149.3L66.9,149.3z M44.4,163.3v-25l18.3,12.5L44.4,163.3z"/>
	<path class="st8" d="M50,108.6c-23.2,0-42.2,18.9-42.2,42.2S26.7,193,50,193s42.2-18.9,42.2-42.2S73.2,108.6,50,108.6L50,108.6z
		 M50,189.4c-21.3,0-38.6-17.3-38.6-38.6s17.3-38.6,38.6-38.6s38.6,17.3,38.6,38.6S71.3,189.4,50,189.4L50,189.4z"/>
</g>
<circle class="st5" cx="50" cy="150.8" r="40.6"/>
<circle class="st5" cx="50" cy="50.6" r="40.6"/>
<path class="st8" d="M50,110.2c-22.4,0-40.6,18.2-40.6,40.6c0,22.4,18.2,40.6,40.6,40.6s40.6-18.2,40.6-40.6
	C90.6,128.4,72.4,110.2,50,110.2z M66.9,152.5l-23.2,15.9c-0.7,0.6-2.6,0.5-2.8-1.5v-31.8c0.2-2,2.1-2,2.8-1.5l23.2,15.9
	C68.3,150.7,67.5,152.1,66.9,152.5z"/>
<path class="st9" d="M50,10C27.6,10,9.4,28.1,9.4,50.6C9.4,73,27.6,91.1,50,91.1S90.6,73,90.6,50.6C90.6,28.1,72.4,10,50,10z
	 M66.9,52.3L43.6,68.2c-0.7,0.6-2.6,0.5-2.8-1.5V34.9c0.2-2,2.1-2,2.8-1.5l23.2,15.9C68.3,50.4,67.5,51.9,66.9,52.3z"/>
</svg>
